<svg xmlns="http://www.w3.org/2000/svg" width="438" height="511" version="1" style=""><path fill="none" stroke="#06a695" stroke-linecap="round" stroke-width="29" d="M14 198V15h136c87 0 170 2 216 71 36 54 35 135-5 187-11 14-24 26-38 35l-26 16 34 49 81 124" class="QyWRVXAg_0"></path><path fill="none" stroke="#06a695" stroke-linecap="round" stroke-width="29" d="M65 198V62h84c59 0 140-7 175 53a129 129 0 0 1 7 109c-4 10-9 17-21 30-49 51-152 40-245 40v203" class="QyWRVXAg_1"></path><path fill="none" stroke="#06a695" stroke-linecap="round" stroke-width="29" d="M116 198v-91h56c40 0 90-3 110 40 4 8 4 16 6 24 1 10-1 21-4 30-8 26-29 36-54 42-17 4-38 5-56 5H14v249M245 335l108 162" class="QyWRVXAg_2"></path><path fill="none" stroke="#06a695" stroke-linecap="round" stroke-width="29" d="M116 497V339h72l106 158" class="QyWRVXAg_3"></path><style data-made-with="vivus-instant">.QyWRVXAg_0{stroke-dasharray:1046 1048;stroke-dashoffset:1047;animation:QyWRVXAg_draw_0 7200ms ease-out 0ms infinite,QyWRVXAg_fade 7200ms linear 0ms infinite;}.QyWRVXAg_1{stroke-dasharray:1020 1022;stroke-dashoffset:1021;animation:QyWRVXAg_draw_1 7200ms ease-out 0ms infinite,QyWRVXAg_fade 7200ms linear 0ms infinite;}.QyWRVXAg_2{stroke-dasharray:1060 1062;stroke-dashoffset:1061;animation:QyWRVXAg_draw_2 7200ms ease-out 0ms infinite,QyWRVXAg_fade 7200ms linear 0ms infinite;}.QyWRVXAg_3{stroke-dasharray:421 423;stroke-dashoffset:422;animation:QyWRVXAg_draw_3 7200ms ease-out 0ms infinite,QyWRVXAg_fade 7200ms linear 0ms infinite;}@keyframes QyWRVXAg_draw{100%{stroke-dashoffset:0;}}@keyframes QyWRVXAg_fade{0%{stroke-opacity:1;}86.11111111111111%{stroke-opacity:1;}100%{stroke-opacity:0;}}@keyframes QyWRVXAg_draw_0{5.555555555555555%{stroke-dashoffset: 1047}42.592592592592595%{ stroke-dashoffset: 0;}100%{ stroke-dashoffset: 0;}}@keyframes QyWRVXAg_draw_1{11.728395061728394%{stroke-dashoffset: 1021}48.76543209876543%{ stroke-dashoffset: 0;}100%{ stroke-dashoffset: 0;}}@keyframes QyWRVXAg_draw_2{17.90123456790123%{stroke-dashoffset: 1061}54.93827160493827%{ stroke-dashoffset: 0;}100%{ stroke-dashoffset: 0;}}@keyframes QyWRVXAg_draw_3{24.074074074074073%{stroke-dashoffset: 422}61.111111111111114%{ stroke-dashoffset: 0;}100%{ stroke-dashoffset: 0;}}</style></svg>