<svg xmlns="http://www.w3.org/2000/svg" width="438" height="511" version="1"><path fill="none" stroke="#84ad3f" stroke-linecap="round" stroke-width="29" d="M14 198V15h136c87 0 170 2 216 71 36 54 35 135-5 187-11 14-24 26-38 35l-26 16 34 49 81 124"/><path fill="none" stroke="#84ad3f" stroke-linecap="round" stroke-width="29" d="M65 198V62h84c59 0 140-7 175 53a129 129 0 0 1 7 109c-4 10-9 17-21 30-49 51-152 40-245 40v203"/><path fill="none" stroke="#84ad3f" stroke-linecap="round" stroke-width="29" d="M116 198v-91h56c40 0 90-3 110 40 4 8 4 16 6 24 1 10-1 21-4 30-8 26-29 36-54 42-17 4-38 5-56 5H14v249M245 335l108 162"/><path fill="none" stroke="#84ad3f" stroke-linecap="round" stroke-width="29" d="M116 497V339h72l106 158"/></svg>